<svg xmlns="http://www.w3.org/2000/svg" viewBox="0 0 1024 1024">
  <path
    fill="#000"
    fill-rule="evenodd"
    d="M173.06 621.35c-.22-14.14-.12-28.27 1.06-42.36 3.09-36.71 9.57-72.8 19.83-108.22 12.27-42.37 28.65-83.17 46.4-123.47 12.74-28.91 25.64-57.75 40.07-85.86 17.78-34.62 37.54-68.08 61.16-99.08 9.74-12.79 20.51-24.76 31.19-36.81 22.06-24.89 49.46-40.96 80.66-51 13.86-4.46 28.13-7.3 42.75-8.66 11.49-1.07 22.98-1.24 34.37-.6 22.82 1.29 44.89 6.66 65.96 15.64 22.41 9.55 42.31 23.03 59.2 40.54 26.48 27.45 49.41 57.68 68.78 90.58 9.54 16.2 18.57 32.67 26.73 49.6 15.15 31.45 28.13 63.82 40.61 96.4 9.51 24.82 18.63 49.78 26.64 75.13 10.89 34.47 20.01 69.38 25.57 105.16 2.92 18.82 4.93 37.69 6.14 56.72.69 10.82 1.17 21.64.57 32.37-1.23 22.13-3.72 44.13-8.76 65.83-11.17 48.09-32.64 91.16-62.94 129.85-16.21 20.7-34.73 39.22-55.31 55.76-37.73 30.32-79.91 51.55-126.56 64.24-17.79 4.84-35.81 7.89-54.1 9.99a308 308 0 0 1-50.25 1.64c-25.67-1.26-50.95-5.48-75.72-12.61-20.19-5.81-39.66-13.4-58.35-22.92-24.06-12.25-46.1-27.55-66.88-44.78-12.98-10.76-25.05-22.44-36.4-34.79a324.4 324.4 0 0 1-44.03-60.71c-14.59-25.98-25.26-53.4-31.68-82.47-2.93-13.26-4.65-26.67-5.91-40.21-1.08-11.68-.25-23.29-.8-34.9M554.67 300.6c-3.95-3.11-7.38-6.22-11.2-8.74-9.79-6.44-20.47-8.52-32.19-6.93-14.34 1.94-26.74 5.04-28.96 24.71-1.39 12.36.93 23.59 10.93 32.03 3.67 3.09 7.61 5.86 11.97 8.02 16.87 8.34 33.72 16.72 50.5 25.24 19.59 9.95 39.4 19.46 58.83 29.74 11.74 6.22 23.35 12.87 36.2 16.72 6.41 1.92 10.41-.09 12.29-6.38.94-3.15 1.88-6.48 1.83-9.71-.34-23.45 1.1-46.92-.82-70.37-1.34-16.28-4.38-32.19-9.56-47.61-8.13-24.21-21.22-45.33-40.28-62.63-15.8-14.33-34.1-24.1-54.24-30.62-13.91-4.5-28.23-6.93-42.81-8.3-13.98-1.31-28.05-1.67-41.85-.29-17.73 1.78-34.47 7.77-50.12 16.83-23.81 13.78-42.24 32.64-55.12 56.8-9.69 18.17-14.16 37.64-14.22 58.37-.06 17.09 2.69 33.36 9.86 48.84 12.46 26.87 32.9 46.05 58.89 59.37 18.93 9.71 38.72 17.71 57.29 28.21 28.3 15.99 52.99 35.92 70.98 63.42 3.11 4.76 3.53 4.63 7.72.63 4.48-4.28 4.35-10.25 6.1-15.52 3.55-10.67 8.81-13.08 18.87-8.14 11.75 5.77 21.23 14.42 28.78 24.86 18.17 25.09 28.04 53.06 26.51 84.35-.57 11.71-3.74 22.96-10.52 32.8-14.87 21.57-32.62 40.2-55.53 53.41-27.74 16-57.33 21.19-88.76 14.72-21.49-4.43-40.86-13.75-58.44-26.74-12.34-9.12-24.11-19.17-32.51-32.05-13.29-20.36-16.08-42.86-9.92-66.31 3.75-14.32 10.72-26.71 23.13-35.54 2.94-2.09 4.4-2.41 5.14 1.84 1.1 6.31.26 12.62.56 18.92.44 9.44 3.5 17.99 9.44 25.23 8.15 9.93 19.05 15.98 31.1 19.84 11.88 3.8 23.48 3.4 34.59-3.13 12.29-7.23 21.48-17.32 27.47-30.07 5.29-11.24 5.39-22.97 1.21-34.78-4.65-13.12-12.7-24.06-21.92-34.14-14-15.3-31.13-25.69-51.03-31.7-20.75-6.27-40.86-14.11-59.18-25.95-11.46-7.41-22.2-15.74-31.83-25.46-7.82-7.9-17.38-7.83-23.47 2.71-1.16 2.01-2.38 4-3.39 6.1-7.06 14.69-14.14 29.38-21.08 44.13-7.85 16.7-14.79 33.73-19.45 51.67-5.42 20.88-9.65 41.98-11.19 63.46-.81 11.33-1.57 22.71-.57 34.26 1.16 13.41 2.48 26.74 5.74 39.75 10.81 43.14 35.98 76.95 69.69 104.87 18 14.91 38 26.69 59.49 35.99 27.53 11.92 56.35 18.67 86.14 20.44 23.04 1.37 46.06-.01 68.85-4.71 26.95-5.56 52.31-15.21 76.18-28.67 25.66-14.47 48-33.1 67.01-55.69 10.43-12.4 19.35-25.82 26.33-40.37 8.06-16.81 13.63-34.42 16.15-53.08 2.2-16.29 2.05-32.44-.67-48.48-3.65-21.44-11.3-41.51-21.93-60.55-12.75-22.83-29.83-41.94-49.78-58.48-18.23-15.11-38.73-26.83-59.74-37.63-32.69-16.8-66.72-30.88-98.84-48.86-24.18-13.54-46.61-29.35-66.4-48.81-2.01-1.98-3.94-3.99-6.56-5.3-3.46-1.72-6.36-1.19-9.18 1.26-2.89 2.51-2.72 5.64-1.53 8.68 2.12 5.41 4.37 10.79 6.96 15.99 2.17 4.36 2.7 8.85 2.41 13.56-.12 1.9-.58 3.87-2.23 4.78-1.94 1.07-3.35-.72-4.72-1.84-8.28-6.73-16.08-14.01-22.46-22.56-11.21-15.02-16.63-31.56-11.88-50.46 6.35-25.31 21.33-44.06 43.88-56.59 16.52-9.17 34.28-13.12 53.18-8.9 16.87 3.77 30.74 12.81 43.23 24.44 10.33 9.59 12.5 21.44 10.65 35.1"
  />
</svg>
